<svg xmlns="http://www.w3.org/2000/svg" xmlns:xlink="http://www.w3.org/1999/xlink" width="204" height="36" viewBox="0 0 204 36">
    <defs>
        <path id="a" d="M0 .169h12.154V35.3H.001z"/>
        <path id="c" d="M.07.169h12.155V35.3H.071z"/>
        <path id="e" d="M0 35.65h203.741V.16H0z"/>
        <path id="g" d="M.23.304h12.548v7.927H.23z"/>
        <path id="i" d="M.276.16H8v7.814H.276z"/>
    </defs>
    <g fill="none" fill-rule="evenodd">
        <g transform="translate(0 .538)">
            <mask id="b" fill="#fff">
                <use xlink:href="#a"/>
            </mask>
            <path fill="#254E9A" d="M.761 18.129c0-2.974 4.731-5.511 11.393-6.515V.17H0V35.3h12.154V24.646C5.492 23.642.761 21.105.761 18.129" mask="url(#b)"/>
        </g>
        <g transform="translate(24.663 .538)">
            <mask id="d" fill="#fff">
                <use xlink:href="#c"/>
            </mask>
            <path fill="#254E9A" d="M.07.169v11.43c6.71.997 11.483 3.541 11.483 6.53 0 2.988-4.772 5.536-11.482 6.529V35.3h12.154V.17H.071z" mask="url(#d)"/>
        </g>
        <path fill="#C52203" d="M18.373 12.894c-9.226 0-16.709 2.59-16.709 5.781 0 3.195 7.483 5.782 16.709 5.782 9.229 0 16.709-2.587 16.709-5.782 0-3.192-7.48-5.78-16.709-5.78m.102 11.13c-6.464 0-11.702-2.437-11.702-5.441 0-3.003 5.238-5.438 11.702-5.438 6.463 0 11.701 2.435 11.701 5.438 0 3.004-5.238 5.44-11.701 5.44"/>
        <path fill="#C52203" d="M16.698 17.04s0-1.21-.315-1.717c-.312-.508-1.073-.96-1.57-.469-.444.442-.217 1.27.196 1.676.413.41 1.69.51 1.69.51"/>
        <path fill="#C52203" d="M19.37 17.662l-.012-3.159h-1.597v3.237l-3.42-.078v1.714h1.455s.078 1.014-.237 1.714c-.313.702-1.1 1.56-1.1 1.56s2.121.158 2.988-1.441c.496-.922.588-1.833.588-1.833h1.375v3.118s2.318.08 2.87-.077c.55-.158.823-1.13.823-1.13h-1.886v-1.831h1.531l.042-1.833"/>
        <path fill="#C52203" d="M20.38 17.051s1.184-.124 1.624-.559c.261-.26.905-1.013.157-1.6-.746-.583-1.336.236-1.493.548-.158.314-.289 1.611-.289 1.611"/>
        <path fill="#515054" d="M50.147 19.006v-1.684h-1.828l1.043-2.267h.588v-1.878h-2.807v-1.294h-1.827v1.294h-3.135v1.878h.851l.521 2.267h-1.828v1.684h3.591v1.035h-3.135v1.878h2.542l-3.195 2.978s-.978 1.554 1.045 1.75l2.743-2.592v3.822h1.827v-3.822a56.27 56.27 0 0 1 1.437 1.166l1.108-1.49-2.015-1.812h2.213v-1.878h-2.743v-1.035h3.004zm-5.372-3.951h2.89l-.979 2.267h-1.37l-.54-2.267z"/>
        <path fill="#515054" d="M50.994 12.919l3.591-1.231s.524-.194.785.129c.258.325 1.043 1.36 1.043 1.36l-3.327 1.102s-.263.129-.263.453v2.592h5.09s.982.71 0 1.682h-1.5v8.87h-1.828v-8.87h-1.762v3.82s0 1.975-.914 2.978l-2.253 2.024-1.263-1.434s2.6-1.885 2.57-3.471l.03-10.004zM64.572 16.589l1.262-1.253c-.347-.691-2.872-2.978-2.872-2.978-.827.215-1.392 1.122-1.392 1.122.827.518 3.002 3.109 3.002 3.109M74.448 13.177s-1.041-.648-1.39-.905c0 0-2.13 2.847-2.482 3.234 0 0 .959.693 1.264.997l2.608-3.326z"/>
        <path fill="#515054" d="M75.734 23.597a.981.981 0 0 0-.963.78c-.319.74-.7.747-.7.747h-3.428v-6.119h5.242l.043.002a.84.84 0 0 0 .842-.835.84.84 0 0 0-.842-.836h-.03v-.014h-7.083v-5.487h-1.829v5.487H60.56v1.683h4.884l-.043 2.003c-.393 2.935-4.005 4.73-4.005 4.73l.026.048a1.04 1.04 0 0 0-.941 1.034c0 .573.47 1.037 1.046 1.037.334 0 .63-.154.821-.396l.027.05c4.005-2.569 4.461-4.28 4.612-5.208.154-.928.134-3.298.134-3.298h1.695v6.767s.033 1.005 1.37 1.165h4.603s1.388.131 1.886-2.056h-.004a.982.982 0 0 0-.936-1.284M95.088 22.849l.023.002c.498 0 .905-.4.905-.897a.904.904 0 0 0-.905-.897h-.023v-.012h-1.534v-3.148H82.915V12.788h-.022a.881.881 0 0 0-.86-.676.88.88 0 0 0-.859.676h-.02v.135a.63.63 0 0 0 0 .132v6.467h1.76v-.007h3.756l-.035 1.088s-.004.167-.053.442h-6.8v1.814h6.08c-.756 1.206-2.245 2.556-5.188 3.14l.913 1.552s3.476-.792 6.044-3.858l.44.534c2.133 2.722 5.876 3.152 5.876 3.152l1.392-1.638c-3.187-.33-4.836-1.698-5.679-2.882h5.428v-.01zm-6.276-1.86v-1.474h3.046v1.53h-3.036c-.008-.034-.01-.055-.01-.055z"/>
        <path fill="#515054" d="M85.026 16.867h8.345a.183.183 0 0 0 .184-.182v-5.073a.186.186 0 0 0-.184-.185h-8.345a.186.186 0 0 0-.185.185v5.073c0 .1.083.182.185.182zm1.61-3.506c0-.103.083-.184.185-.184h4.852c.101 0 .185.081.185.184v1.608a.185.185 0 0 1-.185.184h-4.852a.185.185 0 0 1-.186-.184V13.36zM101.605 15.378l-1.766-.663s-1.192 3.334-1.797 4.224c0 0-.114.228-.244.406l.004.002a.995.995 0 0 0-.2.597 1.014 1.014 0 1 0 1.924.437h.003c.477-.606 2.076-5.003 2.076-5.003M108.73 18.81c-.457-.192-1.433-1.069-1.433-1.069 1.043-.775 3.817-3.56 3.817-3.56l1.567.972s-2.938 3.14-3.85 3.628l-.101.03z"/>
        <path fill="#515054" d="M112.282 24.942l.017-.047a86.64 86.64 0 0 1-2.457-1.972c-2.743-2.267-3.852-5.505-3.852-5.505v-5.99h-2.25v6.088s.128 1.36-1.276 4.08c-.977 1.892-3.114 3.072-4.308 3.658l.011.055a.92.92 0 0 0-.803.907.92.92 0 0 0 1.141.89l.011.058c4.57-1.132 6.624-6.702 6.624-6.702s2.547 4.24 6.397 6.508l.018-.052a1.057 1.057 0 0 0 1.438-.985c0-.459-.298-.848-.71-.99M119.698 12.399l-1.532-1.034s-.462.565-1.067 1.281c-.399-.762-.698-1.218-.698-1.218l-1.47 1.003s.494.523 1.063 1.495c-.575.645-1.125 1.227-1.455 1.485l.012.015c-.262.185-.435.49-.435.837a1.03 1.03 0 0 0 1.034 1.028c.266 0 .51-.101.694-.264l.004.004c.272-.238.652-.65 1.069-1.129.16.437.306.914.427 1.426l-.028-.007s-.46 1.49-2.35 3.044l.043.05a.908.908 0 0 0-.443.782.92.92 0 0 0 1.61.608l.008.006s1.045-.822 1.479-1.942l.012-.084c.02.516.012 1.053-.033 1.616 0 0-.326 3.171-2.023 4.403l1.174 1.295c2.352-2.265 2.416-7.058 2.416-7.058 0-1.961-.576-3.909-1.204-5.455.902-1.129 1.693-2.187 1.693-2.187M124.32 18.704v-5.44h-1.391v-1.857h-1.786v1.856H119.927V26.95h1.524v-1.34h2.87v-5.48h-2.87v-1.425h2.87zm-2.741 5.138h1.349v-1.943h-1.35v1.943zm-.045-6.909h1.438v-1.878h-1.438v1.878zM131.864 12.545a.673.673 0 0 0-.59-.66v-.002h-.025c-.021-.003-.042-.007-.062-.007-.02 0-.042.004-.065.007h-6.802v1.343h3.177v1.829h-2.221v9.908c-.002.02-.006.04-.006.061 0 .02.004.041.006.061v.052h.004a.658.658 0 0 0 .648.543.658.658 0 0 0 .65-.543h.007v-.062c.002-.016.006-.034.006-.05 0-.02-.004-.036-.006-.052v-8.255h.912v10.36h1.437v-2.02c1.274.842 1.73.357 1.73.357.587-.194.578-1.792.578-1.792v-8.568h-2.308v-1.829h2.34v-.014a.674.674 0 0 0 .59-.667zm-2.017 4.173v6.905l-.913-.412v-6.493h.913zM138.922 20.138l1.86-.39-1.439-2.88-1.5.808.23.423h-1.14l2.774-3.692-1.31-.97-1.975 2.592.78-.866-1.348-1.079 1.565-1.976-1.338-1.067-2.512 3.172 2.578 2.175-1.304 1.71h-.946v1.522h2.38v7.317h1.797V19.62h.652z"/>
        <g fill="#515054">
            <path d="M133.994 21.11s-.19 2.712-.477 3.67a.904.904 0 0 0 .76 1.39.912.912 0 0 0 .849-.577c.503-1.18.596-4.483.596-4.483h-1.728zM138.64 21.164c.216 1.856.87 3.238.87 3.238l1.524-.56c-.35-.605-.96-2.678-.96-2.678h-1.435zM148.255 22.89c-.194 2.04-.683 1.77-.683 1.77h-4.407v-5.008h3.224c.134.494.586.858 1.127.858.632 0 1.144-.495 1.169-1.118h.006v-7.81h-8.617v2.07h6.354v4.188h-5.134v6.819s-.217 1.534.989 1.792h5.778c1.111.13 1.338-.808 1.338-.808.097-.39.52-2.753.52-2.753h-1.664zM153.278 17.187c1.132-.826 4.833-3.56 5.424-4.399l.26-.258s3.612 3.799 7.052 4.62l1.476-1.426c-3.654-1.296-7.18-4.534-7.18-4.534h-2.478c-1.864 1.807-5.074 3.969-5.644 4.349-.506.09-.887.526-.887 1.054 0 .592.483 1.07 1.077 1.07.376 0 .706-.19.9-.476"/>
        </g>
        <path fill="#515054" d="M156.348 16.89h5.355v-1.835h-5.355z"/>
        <g transform="translate(0 .189)">
            <path fill="#515054" d="M162.4 20.8l1.74-1.9c.175-1.378-1.043-1.249-1.043-1.249h-8.444v1.813h6.831l-.26.346 1.045.95.132.04zM155.654 22.357l-1.699-.735-1.707 2.88a1.03 1.03 0 0 0-.415.825c0 .573.469 1.038 1.045 1.038.388 0 .72-.205.904-.512h.002l.014-.028c.002-.003.002-.005.002-.007l1.854-3.46zM162.225 24.428h-4.134v-3.453h-1.999v4.231s-.09.905 1.086 1.122h5.438s1.525-.045 1.918-3.583h-1.483c-.347 1.64-.826 1.683-.826 1.683"/>
            <path fill="#515054" d="M167.477 23.836l.01-.008c-.478-1.21-2.084-2.985-2.084-2.985l-1.392 1.126s1.266 1.145 1.823 2.706c.012.05.029.099.05.145.006.024.014.044.02.067l.01-.007c.16.302.473.504.839.504a.937.937 0 1 0 .725-1.548M159.265 21.58l1.74 1.681 1.047-1.078c-.219-.475-1.697-1.554-1.697-1.554-.654.172-1.09.95-1.09.95M184.559 18.628v-.01h-15.277v1.29h5.65v.787h-4.286V25.616h.033a.91.91 0 0 0-.06.327c0 .523.426.944.95.944s.95-.421.95-.944c0-.03-.002-.06-.004-.09h9.595c-.002.03-.004.06-.004.09 0 .523.427.944.952.944a.946.946 0 0 0 .89-1.271h.015V20.695h-4.188v-.786h4.685c.02.001.04.006.063.006a.65.65 0 0 0 .65-.646.644.644 0 0 0-.614-.641zm-8.365 2.067h2.318v-.786h-2.318v.786zm5.94 1.036v3.215h-9.66V21.73h2.458v.195s.031.314-.262.3h-1.216v.735h1.87s.814.113.87-.52v-.71h2.318v.71c.058.633.87.52.87.52h1.874v-.734h-1.223c-.289.013-.258-.301-.258-.301v-.195h2.36z"/>
            <mask id="f" fill="#fff">
                <use xlink:href="#e"/>
            </mask>
            <path fill="#515054" d="M173.452 24.514h7.789V23.48h-7.79z" mask="url(#f)"/>
        </g>
        <g fill="#515054">
            <path d="M170.626 18.14h6.439v-1.207h-6.44v-4.655h5.862c.022.002.041.006.064.006.359 0 .65-.289.65-.645a.646.646 0 0 0-.615-.643v-.006h-7.265v.002h-.002v7.149h1.307z"/>
            <path d="M177.075 14.375h-2.25a2.373 2.373 0 0 1-.136-.653v-.058h1.521v-.712h-3.32l.073-.65h-.882s.035.973-.716 1.2l.555.678s.339-.141.646-.516h1.257c.01.15.019.414-.02.71h-2.178v.68h1.998a1.554 1.554 0 0 1-.27.422c-.617.68-1.303.777-1.303.777l.686.614s.85-.109 1.697-1.425v.002c.522 1.069 1.141 1.456 1.141 1.456l.785-.55c-.574-.458-.952-.903-1.2-1.296h1.916v-.68zM177.857 14.115s1.241-.127 1.472-.939v-.841h1.891v.617s.068.646.589.743h2.805s.589-.226.75-1.1l-.812-.68s-.23.777-.526.872h-1.402v-1.78h-4.504v1.07s-.066.71-1.208.841l.945 1.197zM178.116 17.807a.46.46 0 0 0 .462.457h.015l.001.004s.965.12 2.66-.947c0 0 1.108.874 3.034 1.005l.004-.023a.5.5 0 1 0 .167-.97c-.004-.001-.006.001-.01.001l.002-.013c-1.468-.161-1.827-.55-1.827-.55.4-.131 1.216-.959 1.5-1.253a.459.459 0 0 0 .333-.439.459.459 0 0 0-.666-.407l-.023-.04h-4.695a.611.611 0 0 0-.103-.01.459.459 0 0 0-.462.457c0 .144.068.271.171.355l-.002.01 1.303 1.327s-1.014.483-1.493.588l-.006.002-.008.002a.457.457 0 0 0-.357.444zm4.118-2.3l-.945.973-.886-.94 1.83-.033zM192.709 20.461c.064-1.846-1.598-3.852-1.598-3.852l1.633-3.821c.421-1.909-1.078-1.813-1.078-1.813h-4.376v15.608h1.765v-3.238l1.175-.066c1.077-.323 2.413-.97 2.479-2.818m-2.448 1.102l-1.206.195V12.82h1.598s.36-.033.229.452l-1.402 3.174s1.5 2.46 1.695 3.302c.196.84.262 1.522-.914 1.814"/>
            <path d="M192.742 16.9h1.829v-2.525H201v1.96h.01a.9.9 0 0 0 .9.831.898.898 0 0 0 .886-1.07v-3.308h-4.146v-2.265h-1.795v2.265H192.742V16.9z"/>
        </g>
        <path fill="#515054" d="M195.517 17.32h4.783v-1.467h-4.783z"/>
        <g>
            <g transform="translate(190.964 18.363)">
                <mask id="h" fill="#fff">
                    <use xlink:href="#g"/>
                </mask>
                <path fill="#515054" d="M10.95 4.656s-.13 1.263-.165 1.394c-.033.13-.194.256-.29.256H9.121V2.11h2.743v-.043a.894.894 0 1 0-.468-1.726H2.334v1.77h2.052c.023.308.09 1.378-.093 1.854-.19.487-1.04 1.567-2.76 2.18l-.734.194.005.018a.977.977 0 0 0-.574.891.987.987 0 0 0 1.286.938c3.586-.252 4.69-3.58 4.777-4.135.075-.479.054-1.62.046-1.94h.877l.013.02v4.597s-.132 1.133.914 1.393h2.775s.914-.033 1.37-1.004l.49-2.461H10.95z" mask="url(#h)"/>
            </g>
            <path fill="#515054" d="M41.248 35.225l-.073-1.036h.26l.01.049c.066.315.206.559.415.729.211.172.48.258.803.258.294 0 .544-.092.753-.272.21-.183.316-.4.316-.654 0-.323-.27-.651-.81-.99l-.512-.319c-.496-.313-.824-.554-.977-.727a.916.916 0 0 1-.23-.626c0-.365.16-.657.483-.88.325-.224.75-.337 1.275-.337.416 0 .836.068 1.265.203l.11.883h-.268l-.017-.05c-.176-.563-.583-.845-1.217-.845-.285 0-.52.077-.706.233a.737.737 0 0 0-.28.592c0 .301.23.596.693.885l.739.463c.46.289.763.518.909.69a.972.972 0 0 1 .215.64c0 .4-.166.713-.498.949-.33.236-.778.35-1.336.35-.467 0-.907-.061-1.322-.188M48.72 32.917h-2.35v1.554c0 .25.036.416.109.494.072.08.227.118.46.118h.05v.189h-1.91v-.189h.051c.235 0 .386-.036.459-.116.072-.078.108-.244.108-.496v-3.108c0-.252-.036-.414-.108-.494-.073-.078-.224-.117-.459-.117h-.051v-.19h1.91v.19h-.05c-.233 0-.388.039-.46.117-.073.08-.11.242-.11.494v1.32h2.35v-1.32c0-.252-.037-.414-.11-.494-.072-.078-.225-.117-.46-.117h-.048v-.19h1.912v.19h-.054c-.233 0-.386.039-.459.117-.073.08-.108.242-.108.494v3.108c0 .252.035.418.108.496.073.08.226.116.459.116h.054v.189H48.1v-.189h.048c.235 0 .388-.038.46-.118.073-.078.11-.244.11-.494v-1.554zM52.467 35.084v.188h-1.913v-.188h.054c.234 0 .385-.037.458-.117.071-.078.108-.244.108-.496v-3.108c0-.252-.037-.414-.108-.495-.073-.077-.224-.116-.458-.116h-.054v-.191h1.913v.191h-.052c-.233 0-.386.04-.459.116-.072.08-.11.243-.11.495v3.108c0 .25.038.415.11.494.073.08.226.119.46.119h.05zM57.45 35.413l-3.356-3.797v2.855c0 .252.037.418.105.496.073.08.222.117.455.117h.06v.188h-1.602v-.188h.04c.228 0 .377-.037.448-.117.07-.078.106-.244.106-.496V31.23l-.1-.125c-.195-.235-.374-.352-.537-.352h-.06v-.19h.988l3.093 3.463v-2.663c0-.252-.035-.413-.108-.493-.073-.078-.225-.117-.46-.117h-.051v-.19h1.598v.19h-.06c-.228 0-.38.039-.45.117-.075.08-.108.241-.108.493v4.051zM64.511 35.272l-2.407-2.366v1.565c0 .25.035.416.11.494.071.08.224.119.457.119h.052v.188h-1.91v-.188h.063c.229 0 .38-.04.45-.12.07-.077.106-.243.106-.493v-3.11c0-.25-.036-.412-.106-.492-.07-.078-.221-.117-.45-.117h-.062v-.19h1.909v.19h-.052c-.233 0-.386.04-.457.117-.075.08-.11.242-.11.493v1.434l1.542-1.438c.264-.241.396-.395.396-.459 0-.098-.097-.147-.288-.147h-.049v-.19h1.371v.19h-.058c-.227 0-.556.203-.99.606l-1.361 1.268 1.898 1.851c.24.234.43.395.56.482a.72.72 0 0 0 .384.125h.054v.188h-1.052zM67.121 34.576c-.315-.43-.47-.985-.47-1.66 0-.672.155-1.222.472-1.656.316-.434.716-.65 1.204-.65.49 0 .892.216 1.206.65.314.434.472.984.472 1.657 0 .674-.158 1.229-.472 1.659-.314.432-.716.649-1.206.649s-.893-.217-1.206-.65m2.971.138c.46-.467.69-1.065.69-1.796 0-.377-.078-.74-.233-1.092a2.352 2.352 0 0 0-.627-.868c-.412-.356-.943-.537-1.595-.537-.718 0-1.308.236-1.766.7-.459.469-.687 1.068-.687 1.797 0 .731.228 1.329.687 1.796.458.469 1.048.7 1.766.7.72 0 1.309-.231 1.765-.7M75.797 35.413l-3.357-3.797v2.855c0 .252.034.418.107.496.07.08.223.117.45.117h.061v.188h-1.6v-.188h.04c.23 0 .377-.037.448-.117.07-.078.103-.244.103-.496V31.23l-.099-.125c-.193-.235-.372-.352-.536-.352h-.06v-.19h.99l3.091 3.463v-2.663c0-.252-.035-.413-.108-.493-.071-.078-.224-.117-.457-.117h-.052v-.19h1.597v.19h-.06c-.229 0-.38.039-.453.117-.07.08-.105.241-.105.493v4.051zM81.04 33.974v1.177a5.282 5.282 0 0 1-1.576.262c-.904 0-1.574-.266-2.014-.803-.38-.464-.568-1.032-.568-1.697 0-.746.225-1.348.68-1.804.455-.46 1.052-.689 1.797-.689.587 0 1.114.066 1.581.193l.1.938h-.26l-.01-.051c-.004-.152-.081-.32-.23-.51-.258-.254-.633-.38-1.125-.38-.538 0-.971.214-1.301.644-.332.428-.495.993-.495 1.692 0 .696.182 1.23.55 1.603.367.373.891.56 1.572.56.174 0 .4-.021.678-.06v-1.075c0-.25-.035-.415-.105-.492-.073-.076-.225-.115-.453-.115h-.06v-.19h1.857v.19h-.045c-.235 0-.39.04-.463.115-.073.077-.11.242-.11.492M91.474 30.752h-.046v-.19h1.908v.19h-.053c-.234 0-.387.039-.46.117-.073.08-.11.241-.11.493v2.116c0 .647.124 1.1.373 1.358.25.258.59.389 1.023.389.39 0 .693-.125.911-.371.218-.248.328-.657.334-1.23v-2.262c0-.252-.038-.412-.108-.493-.073-.078-.228-.117-.463-.117h-.05v-.19h1.652v.19h-.044c-.234 0-.39.039-.465.117-.073.08-.109.241-.109.493v2.014c0 .491-.03.84-.094 1.046-.06.207-.188.395-.385.565-.332.285-.812.426-1.436.426-.534 0-.956-.112-1.269-.338a1.142 1.142 0 0 1-.43-.559c-.073-.213-.108-.56-.108-1.038v-2.116c0-.252-.037-.412-.11-.493-.073-.078-.226-.117-.461-.117M102.798 32.917h-2.35v1.554c0 .25.035.416.11.494.073.08.226.118.459.118h.05v.189h-1.912v-.189h.054c.233 0 .386-.036.459-.116.073-.078.107-.244.107-.496v-3.108c0-.252-.034-.414-.107-.494-.073-.078-.226-.117-.46-.117h-.053v-.19h1.911v.19h-.05c-.232 0-.385.039-.458.117-.075.08-.11.242-.11.494v1.32h2.35v-1.32c0-.252-.037-.414-.11-.494-.073-.078-.226-.117-.46-.117h-.05v-.19h1.91v.19h-.05c-.236 0-.39.039-.46.117-.074.08-.107.242-.107.494v3.108c0 .252.033.418.108.496.07.08.223.116.458.116h.052v.189h-1.911v-.189h.05c.234 0 .387-.038.46-.118.073-.078.11-.244.11-.494v-1.554zM105.901 34.576c-.312-.43-.468-.985-.468-1.66 0-.672.156-1.222.47-1.656.316-.434.719-.65 1.208-.65.487 0 .89.216 1.204.65.315.434.474.984.474 1.657 0 .674-.159 1.229-.474 1.659-.314.432-.717.649-1.204.649-.491 0-.894-.217-1.21-.65m2.975.138c.458-.467.686-1.065.686-1.796 0-.377-.077-.74-.23-1.092a2.334 2.334 0 0 0-.627-.868c-.415-.356-.946-.537-1.594-.537-.722 0-1.309.236-1.767.7-.458.469-.687 1.068-.687 1.797 0 .731.229 1.329.687 1.796.458.469 1.045.7 1.767.7.716 0 1.305-.231 1.765-.7M112.844 35.225l-.074-1.036h.26l.01.049c.066.315.205.559.417.729.209.172.477.258.801.258.293 0 .543-.092.754-.272.21-.183.318-.4.318-.654 0-.323-.275-.651-.814-.99l-.51-.319c-.497-.313-.823-.554-.976-.727a.902.902 0 0 1-.234-.626c0-.365.164-.657.486-.88.322-.224.747-.337 1.275-.337a4.2 4.2 0 0 1 1.264.203l.11.883h-.27l-.014-.05c-.177-.563-.584-.845-1.22-.845-.283 0-.518.077-.706.233a.738.738 0 0 0-.278.592c0 .301.229.596.693.885l.737.463c.463.289.764.518.909.69a.95.95 0 0 1 .216.64c0 .4-.163.713-.495.949-.332.236-.778.35-1.338.35-.464 0-.906-.061-1.321-.188M116.64 30.752h-.05v-.19h1.91v.19h-.053c-.233 0-.386.039-.458.117-.077.08-.11.241-.11.493v2.116c0 .647.124 1.1.372 1.358.247.258.588.389 1.022.389.39 0 .695-.125.91-.371.219-.248.33-.657.335-1.23v-2.262c0-.252-.038-.412-.108-.493-.072-.078-.227-.117-.46-.117h-.05v-.19h1.65v.19h-.046c-.231 0-.388.039-.462.117-.075.08-.112.241-.112.493v2.014c0 .491-.03.84-.09 1.046-.06.207-.19.395-.389.565-.332.285-.809.426-1.434.426-.533 0-.956-.112-1.27-.338a1.152 1.152 0 0 1-.431-.559c-.073-.213-.108-.56-.108-1.038v-2.116c0-.252-.035-.412-.11-.493-.073-.078-.226-.117-.457-.117M129.53 34.811l-1.952-3.449v3.109c0 .25.035.418.11.494.074.08.226.118.462.118h.047v.189h-1.575v-.189h.046c.237 0 .392-.038.463-.118.073-.076.11-.244.11-.494v-3.109c0-.252-.037-.413-.11-.491-.071-.08-.226-.119-.463-.119h-.046v-.19h1.2l1.92 3.383 1.76-3.383h1.243v.19h-.053c-.234 0-.386.039-.459.119-.076.078-.111.24-.111.491v2.99c0 .332.035.54.111.615.073.078.225.116.459.116h.053v.189h-1.862v-.189h.04c.239 0 .392-.038.466-.116.076-.076.114-.244.114-.496v-3.42l-1.972 3.76zM135.35 32.892h-.771v1.6c0 .2.092.344.28.424.188.08.518.118.991.118h.139c.208 0 .359-.047.46-.14.099-.095.167-.263.21-.505l.01-.057h.26l-.103 1.026a15.118 15.118 0 0 0-.945-.041c-.22 0-.479-.006-.776-.025a15.04 15.04 0 0 0-.526-.02h-1.291v-.19h.06c.22 0 .37-.04.444-.12.076-.083.115-.247.115-.49V31.37c0-.258-.037-.423-.105-.503-.07-.076-.223-.115-.454-.115h-.06v-.19h3.408l.102.874h-.258l-.01-.066c-.042-.263-.129-.423-.252-.485-.124-.06-.453-.088-.983-.088h-.716v1.909h.772c.357 0 .584-.029.682-.084.098-.056.147-.184.147-.383v-.051h.256v1.224h-.256v-.045c0-.18-.04-.307-.123-.385-.068-.059-.302-.09-.706-.09M140.355 34.811l-1.955-3.449v3.109c0 .25.037.418.111.494.073.08.227.118.463.118h.047v.189h-1.575v-.189h.045c.238 0 .39-.038.463-.118.076-.076.111-.244.111-.494v-3.109c0-.252-.035-.413-.111-.491-.073-.08-.225-.119-.463-.119h-.045v-.19h1.201l1.918 3.383 1.761-3.383h1.241v.19h-.051c-.236 0-.389.039-.459.119-.076.078-.111.24-.111.491v2.99c0 .332.035.54.111.615.07.078.223.116.459.116h.051v.189h-1.86v-.189h.04c.237 0 .391-.038.468-.116.074-.076.111-.244.111-.496v-3.42l-1.971 3.76zM145.38 34.576c-.312-.43-.471-.985-.471-1.66 0-.672.159-1.222.473-1.656.315-.434.718-.65 1.205-.65.49 0 .892.216 1.206.65.316.434.473.984.473 1.657 0 .674-.157 1.229-.473 1.659-.314.432-.717.649-1.206.649s-.892-.217-1.207-.65m2.974.138c.459-.467.688-1.065.688-1.796 0-.377-.078-.74-.231-1.092a2.334 2.334 0 0 0-.628-.868c-.413-.356-.943-.537-1.596-.537-.72 0-1.306.236-1.765.7-.458.469-.687 1.068-.687 1.797 0 .731.229 1.329.687 1.796.459.469 1.045.7 1.765.7.719 0 1.31-.231 1.767-.7M151.191 30.752c.479 0 .826.072 1.043.213.216.142.324.369.324.68 0 .301-.081.557-.236.768a1.2 1.2 0 0 1-.667.433h-.749v-2.094h.285zm1.866 4.52h.997v-.188h-.039a.453.453 0 0 1-.324-.15c-.103-.098-.273-.315-.508-.651l-.334-.494c-.227-.325-.382-.536-.471-.628a1.294 1.294 0 0 0-.345-.262c.411-.134.719-.316.919-.545.202-.23.305-.508.305-.838 0-.348-.127-.596-.384-.74-.251-.143-.687-.214-1.302-.214h-1.957v.19h.051c.236 0 .388.039.46.117.073.08.108.241.108.492v3.11c0 .252-.035.418-.107.496-.073.08-.225.117-.46.117h-.052v.188h1.885v-.188h-.03c-.23 0-.383-.04-.456-.12-.07-.077-.107-.243-.107-.493v-1.435h.665l1.486 2.236zM156.28 35.084v.188h-1.912v-.188h.054c.233 0 .386-.037.46-.117.07-.078.108-.244.108-.496v-3.108c0-.252-.038-.414-.108-.495-.074-.077-.227-.116-.46-.116h-.054v-.191h1.912v.191h-.05c-.233 0-.386.04-.458.116-.076.08-.112.243-.112.495v3.108c0 .25.036.415.112.494.072.08.225.119.458.119h.05zM160.002 33.554h-2.017l.985-2.222 1.032 2.222zm.444.913c.105.233.159.379.159.438 0 .072-.02.12-.07.141-.046.025-.137.038-.273.038h-.058v.188h1.526v-.188h-.041a.325.325 0 0 1-.252-.12c-.068-.079-.161-.245-.279-.497l-1.887-4.045h-.21l-1.825 4.045c-.105.24-.203.402-.29.488a.447.447 0 0 1-.328.129h-.055v.188h1.27v-.188l-.052-.005c-.23-.018-.345-.092-.345-.215 0-.05.045-.178.136-.374l.318-.7h2.242l.314.677zM165.39 34.283l.01-.07h.26l-.121 1.123a39.572 39.572 0 0 0-2.23-.064h-1.29v-.19h.058c.233 0 .382-.037.454-.115.07-.08.107-.246.107-.502v-3.102c0-.252-.039-.414-.109-.494-.072-.078-.225-.117-.452-.117h-.058v-.19h1.908v.19h-.056c-.23 0-.382.04-.454.117-.073.08-.108.242-.108.494v3.102c0 .205.08.342.244.416.16.071.468.108.925.108h.163c.274 0 .448-.049.524-.145.116-.144.19-.332.225-.561M171.966 32.917h-2.35v1.554c0 .25.035.416.112.494.072.08.225.118.458.118h.05v.189h-1.912v-.189h.053c.234 0 .387-.036.459-.116.072-.078.107-.244.107-.496v-3.108c0-.252-.035-.414-.107-.494-.072-.078-.225-.117-.459-.117h-.053v-.19h1.912v.19h-.05c-.233 0-.386.039-.458.117-.077.08-.112.242-.112.494v1.32h2.35v-1.32c0-.252-.036-.414-.11-.494-.074-.078-.227-.117-.458-.117h-.052v-.19h1.912v.19h-.054c-.233 0-.384.039-.456.117-.072.08-.107.242-.107.494v3.108c0 .252.035.418.107.496.072.08.223.116.456.116h.054v.189h-1.912v-.189h.052c.231 0 .384-.038.458-.118.074-.078.11-.244.11-.494v-1.554zM175.07 34.576c-.313-.43-.47-.985-.47-1.66 0-.672.159-1.222.471-1.656.317-.434.718-.65 1.207-.65.49 0 .892.216 1.204.65.315.434.474.984.474 1.657 0 .674-.159 1.229-.474 1.659-.312.432-.715.649-1.204.649-.491 0-.894-.217-1.208-.65m2.975.138c.456-.467.688-1.065.688-1.796 0-.377-.079-.74-.234-1.092a2.334 2.334 0 0 0-.627-.868c-.411-.356-.944-.537-1.594-.537-.72 0-1.309.236-1.767.7-.458.469-.687 1.068-.687 1.797 0 .731.229 1.329.687 1.796.458.469 1.047.7 1.767.7.719 0 1.31-.231 1.767-.7M179.402 35.225l-.073-1.036h.26l.007.049c.068.315.206.559.419.729.21.172.477.258.803.258.291 0 .543-.092.751-.272.21-.183.316-.4.316-.654 0-.323-.27-.651-.81-.99l-.513-.319c-.495-.313-.822-.554-.975-.727a.912.912 0 0 1-.233-.626c0-.365.161-.657.485-.88.322-.224.75-.337 1.276-.337.413 0 .834.068 1.261.203l.112.883h-.266l-.017-.05c-.18-.563-.586-.845-1.22-.845-.285 0-.516.077-.706.233a.746.746 0 0 0-.28.592c0 .301.232.596.695.885l.74.463c.46.289.763.518.908.69a.962.962 0 0 1 .216.64c0 .4-.165.713-.497.949-.335.236-.78.35-1.338.35-.467 0-.906-.061-1.321-.188M184.868 30.752c.485 0 .828.08 1.028.242.203.161.304.432.304.815 0 .438-.124.768-.372.99-.248.22-.619.33-1.113.33h-.192v-2.377h.345zm1.478 2.134c.384-.287.576-.677.576-1.165 0-.381-.13-.676-.388-.887a1.106 1.106 0 0 0-.474-.22c-.18-.034-.473-.052-.882-.052h-1.947v.19h.054c.231 0 .386.039.456.117.072.08.11.241.11.493v3.105c0 .254-.038.42-.11.5-.07.078-.225.115-.456.115h-.054v.19h2.013v-.19h-.154c-.244 0-.397-.035-.465-.11-.069-.073-.102-.24-.102-.505v-1.15h.265c.655 0 1.174-.142 1.558-.431zM189.3 35.084v.188h-1.913v-.188h.054c.235 0 .385-.037.46-.117.07-.078.107-.244.107-.496v-3.108c0-.252-.037-.414-.107-.495-.075-.077-.225-.116-.46-.116h-.054v-.191h1.914v.191h-.052c-.233 0-.386.04-.458.116-.072.08-.112.243-.112.495v3.108c0 .25.04.415.112.494.072.08.225.119.458.119h.052zM191.638 34.473v-3.676h-.527c-.396 0-.667.05-.817.148-.153.096-.25.287-.298.569l-.01.061h-.272l.125-1.095c.576.055 1.173.082 1.799.082h.695c.624 0 1.224-.027 1.798-.082l.127 1.095h-.271l-.012-.061c-.048-.282-.145-.473-.296-.57-.153-.098-.425-.147-.82-.147h-.526v3.676c0 .254.044.418.13.496.083.076.265.115.543.115h.05v.19h-2.141v-.19h.05c.28 0 .462-.04.545-.115.086-.078.128-.242.128-.496M197.854 33.554h-2.017l.984-2.222 1.033 2.222zm.441.913c.108.233.161.379.161.438 0 .072-.024.12-.07.141-.047.025-.136.038-.274.038h-.056v.188h1.525v-.188h-.043a.327.327 0 0 1-.25-.12c-.07-.079-.16-.245-.278-.497l-1.89-4.045h-.208l-1.825 4.045c-.105.24-.202.402-.29.488a.444.444 0 0 1-.329.129h-.056v.188h1.27v-.188l-.054-.005c-.227-.018-.343-.092-.343-.215 0-.05.048-.178.139-.374l.314-.7h2.246l.311.677zM203.24 34.283l.01-.07h.262l-.121 1.123a39.685 39.685 0 0 0-2.23-.064h-1.292v-.19h.06c.23 0 .382-.037.452-.115.072-.08.107-.246.107-.502v-3.102c0-.252-.037-.414-.11-.494-.07-.078-.22-.117-.45-.117h-.06v-.19h1.91v.19h-.056c-.229 0-.383.04-.454.117-.072.08-.107.242-.107.494v3.102c0 .205.08.342.241.416.163.071.473.108.927.108h.163c.273 0 .447-.049.527-.145.113-.144.186-.332.22-.561M90.393 30.562H89.704l-.023.19h.28s.046.017.031.078l-1.7 3.6-.634-1.912.431-.94.373-.814c.011-.004.02-.01.03-.012h.353l.022-.19H87.868l-.023.19h.28s.046.017.033.078l-.622 1.315-.249-.748a1.225 1.225 0 0 1-.066-.366c0-.111.026-.186.08-.222.052-.038.16-.057.32-.057h.062v-.19h-1.651v.19h.051c.116 0 .216.047.297.143.08.095.16.256.235.486l.524 1.603-.685 1.446-1.004-3.033a1.26 1.26 0 0 1-.067-.366c0-.111.028-.186.082-.222.054-.038.16-.057.32-.057h.061v-.19h-1.648v.19h.05a.37.37 0 0 1 .295.143c.082.095.16.256.235.486l1.324 4.032h.222l.942-2.046.67 2.046h.225l1.766-3.836.373-.813c.01-.004.018-.01.028-.012h.351l.025-.19h-.311z"/>
        </g>
        <g>
            <path fill="#515054" d="M44.314 8.17h-.347V5.06h-.14c-.386 1.007-.945 1.783-1.678 2.33l-.215-.272c.661-.494 1.183-1.18 1.562-2.058h-1.28v-.323h1.751v-.855h.347v.855h1.76v.323h-1.76v3.11zm1.81-4.785V3.7h-3.958v-.315h1.323a15.06 15.06 0 0 0-.604-1.31l.273-.15c.225.393.46.88.702 1.46h.52c.27-.432.496-.924.677-1.477l.323.125c-.226.609-.433 1.058-.62 1.352h1.364zm-3.817-1.618h3.56v-.324h-3.56v.324zm1.396-1.41c.225.278.443.572.652.888l-.28.19a9.338 9.338 0 0 0-.629-.92l.257-.157zm.975 5.001c.274.249.643.627 1.106 1.137l-.255.257a16.865 16.865 0 0 0-1.083-1.17l.232-.224zM49.7 3.194v.324h-1.29v4.62h-.346v-4.62h-1.297v.72c0 1.782-.394 3.081-1.183 3.9l-.271-.266c.731-.797 1.098-2.008 1.098-3.633V1.312A8.16 8.16 0 0 0 49.13.581l.207.29a9.097 9.097 0 0 1-2.569.713v1.61h2.933zM56.587 7.54h1.05c.296 0 .482-.128.553-.381.066-.254.112-.617.14-1.088l.396.174c-.048.716-.15 1.17-.305 1.371-.149.202-.394.305-.735.305h-1.158c-.825 0-1.238-.414-1.238-1.243V4.024h-1.116v.032c0 .924-.264 1.781-.793 2.572a3.702 3.702 0 0 1-2.14 1.55l-.214-.356c.914-.283 1.6-.788 2.057-1.517.458-.732.686-1.49.686-2.273v-.017h-2.577v-.372h3.42V.367h.43v3.276h3.444v.372h-2.8v2.621c0 .602.3.903.9.903zm-4.164-6.494c.568.685.995 1.32 1.281 1.906l-.38.201c-.264-.581-.675-1.212-1.231-1.892l.33-.215zm5.246.133a9.474 9.474 0 0 1-1.346 2.048l-.347-.24A8.918 8.918 0 0 0 57.322.982l.347.198zM60.185 4.736v-.29h7.402v.29H64.83v.49h2.024v2.937h-.323v-.4h-5.262v.407h-.322V5.225h1.94v-.489h-2.7zM64.06.988h-3.238V3.55h3.33v.299h-3.636V.699h3.544v.29zm-1.379 1.144h1.19v.273H62.64l-.034.084c.364.137.766.345 1.207.62l-.174.292c-.666-.442-1.055-.664-1.165-.664-.248.355-.681.598-1.297.731l-.091-.307c.666-.127 1.074-.379 1.223-.756h-1.182v-.273h1.231a7.987 7.987 0 0 0 .025-.464h-.652c-.127.15-.273.285-.44.406l-.188-.24c.291-.188.52-.455.686-.796l.28.116-.14.247h1.651v.267h-.875c-.005.094-.008.17-.008.232 0 .077-.006.155-.016.232zm.496 3.393c-.122.575-.616.9-1.48.979l-.131-.3c.693-.039 1.12-.265 1.28-.68h-1.578v1.077h5.262v-.33h-1.247c-.523 0-.785-.207-.785-.622v-.124h-1.321zm-1.91 1.933h5.263v-.582h-5.262v.582zm1.943-2.233h1.288v-.489H63.21v.49zm.8-.962l-.114-.296c.665-.14 1.175-.303 1.528-.49-.299-.218-.581-.525-.852-.922h-.388v-.307h2.875c-.231.487-.597.893-1.098 1.22.473.238 1.031.398 1.676.48l-.124.307a5.684 5.684 0 0 1-1.825-.596c-.419.26-.977.46-1.678.604zm-.032-2.339c.556-.16.834-.538.834-1.137V.665h1.776v.689c0 .187.102.28.306.28h.735v.29h-.752c-.413 0-.62-.188-.62-.563v-.4h-1.132v.01c0 .613-.327 1.023-.982 1.228l-.165-.275zm2.552 3.6H64.83v.117c0 .249.156.373.47.373h1.231v-.49zm-.05-2.969h-1.56c.231.31.487.56.768.747.264-.165.528-.415.793-.747z"/>
            <g transform="translate(68.705 .189)">
                <mask id="j" fill="#fff">
                    <use xlink:href="#i"/>
                </mask>
                <path fill="#515054" d="M7.984.973v.316H1.837v2.312c0 1.45-.106 2.468-.322 3.053-.221.593-.496 1.031-.826 1.32l-.256-.242c.7-.635 1.049-1.638 1.049-3.01v-.009a9.486 9.486 0 0 1-.959.854l-.247-.28a7.742 7.742 0 0 0 1.222-1.071V.966h3.1a4.213 4.213 0 0 0-.712-.55l.23-.255c.36.254.677.522.951.805l2.917.007zm-7.32.904c.302.615.535 1.178.694 1.691l-.339.158A16.755 16.755 0 0 0 .36 2.01l.305-.133zm3.189 4.33c-.451.408-1.082.788-1.892 1.137l-.174-.308a6.995 6.995 0 0 0 1.86-1.078l.206.249zm2.413-2.92c.34-.217.604-.43.793-.638l.255.24c-.236.237-.497.44-.784.606.419.338.908.63 1.47.879l-.157.298c-.534-.249-.944-.49-1.23-.72v1.74h-1.48v1.667c0 .365-.192.547-.578.547a4.6 4.6 0 0 1-.843-.098v-.365c.369.094.654.142.85.142.15 0 .224-.076.224-.226V5.692H3.184V3.968c-.215.205-.573.438-1.074.704l-.156-.298a6.337 6.337 0 0 0 1.353-.896 6.587 6.587 0 0 0-.8-.623l.214-.266c.259.183.534.408.826.672.26-.258.484-.542.678-.853H2.25v-.316h2.165a4.65 4.65 0 0 0 .33-.77l.306.073c-.06.2-.152.433-.273.697H7.76v.316H5.505c.226.311.479.604.761.88zm-2.76 1.11H6.29v-.554H3.506v.555zm0 .98H6.29v-.672H3.506v.672zM6.067 3.52a4.786 4.786 0 0 1-.924-1.111h-.53c-.22.4-.506.77-.86 1.111h2.314zm.116 2.456c.445.277 1.021.668 1.726 1.177l-.173.308c-.293-.211-.59-.427-.893-.647-.275-.2-.561-.392-.86-.574l.2-.264z" mask="url(#j)"/>
            </g>
            <path fill="#515054" d="M79.56 6.329c-.32.696-.734 1.274-1.24 1.733l-.281-.255c.451-.378.854-.922 1.206-1.635l.315.157zm-1.008-.505h2.594V.815h-2.594v5.009zm.355-3.535h1.883V1.136h-1.883v1.153zm0 1.528h1.883V2.605h-1.883v1.212zm0 1.691h1.883V4.132h-1.883v1.376zm1.437.656c.43.452.787.944 1.074 1.476l-.347.208c-.39-.704-.732-1.21-1.024-1.52l.297-.164zm4.09 1.185c0 .443-.24.664-.72.664-.214 0-.569-.021-1.064-.057l-.091-.392c.406.071.768.11 1.082.11.297 0 .446-.118.446-.349V2.77h-.174c-.402 1.604-1.168 2.929-2.297 3.973l-.247-.28c1.023-.902 1.76-2.132 2.206-3.693h-2v-.323h2.512V.357h.347v2.09h1.305v.323h-1.305v4.58zM87.826 8.17h-.347V.674h6.798v7.498h-.346v-.49h-6.105v.49zm0-.795h6.105V.98h-6.105v6.394zm5.832-1.867v.282h-1.372v.847c0 .342-.2.513-.602.513h-.026a3.852 3.852 0 0 1-.669-.092l-.048-.348c.312.084.547.126.702.126.22 0 .33-.064.33-.191V5.79h-3.859v-.282h3.86V5.06h.312v.448h1.372zM92.435 4.28c.369.217.75.478 1.14.78l-.222.234c-.244-.244-.384-.366-.422-.366h-.007c-1.83.106-3.302.172-4.42.2l-.068-.315c.673-.016 1.41-.038 2.215-.068v-.465H88.81V2.29h1.842v-.438h-2.437V1.56h2.437v-.381h.314v.38h2.56v.292h-2.56v.438h1.925v1.99h-.455zm-3.32-1.17h1.536v-.521h-1.537v.522zm0 .865h1.536v-.59h-1.537v.59zm.355 1.857c.4.16.776.355 1.123.58l-.174.292c-.253-.19-.614-.388-1.082-.599l.133-.273zm1.495-2.721h1.628v-.522h-1.628v.522zm0 .864h1.628v-.59h-1.628v.59zm0 .305v.458c.331-.01.573-.02.727-.025.187-.011.467-.022.842-.033l-.313-.183.198-.217h-1.454zM96.274 2.463c.346.217.756.554 1.231 1.014l-.233.305c-.406-.408-.815-.77-1.221-1.086l.223-.233zm1.28 1.594l.322.249c-.363 1.442-.824 2.638-1.38 3.582l-.371-.174a14 14 0 0 0 1.43-3.657zm-.66-3.335c.44.3.872.632 1.296.995l-.239.299A10.87 10.87 0 0 0 96.661.96l.232-.239zm6.873 3.451v.356h-2.916c-.364.94-.822 1.842-1.373 2.703a29.699 29.699 0 0 0 3.265-.34c-.232-.354-.541-.76-.926-1.217l.273-.191a12.943 12.943 0 0 1 1.652 2.254l-.33.266c-.078-.142-.16-.29-.248-.44a2.894 2.894 0 0 1-.182-.34c-1.757.27-3.312.424-4.669.457l-.14-.431.868-.01c.518-.822.98-1.726 1.387-2.71H98.19v-.357h2.462v-1.75H98.62v-.358h2.032V.357h.412v1.708h2.356v.357h-2.356v1.751h2.703zM112.776 7.773l-.24.39a8.71 8.71 0 0 1-2.32-2.158c-.662-.877-1.132-1.744-1.413-2.596-.22.885-.692 1.79-1.413 2.713-.722.922-1.44 1.606-2.155 2.049l-.225-.357c.64-.432 1.265-1.02 1.876-1.767.617-.745 1.067-1.516 1.354-2.307.287-.795.436-1.914.447-3.358l.43.016c-.012.83-.07 1.615-.174 2.356 0 .21.204.704.611 1.485.408.78.909 1.484 1.504 2.115.601.63 1.173 1.104 1.718 1.42"/>
        </g>
    </g>
</svg>
